<mxfile host="Electron" modified="2024-04-04T18:48:57.589Z" agent="Mozilla/5.0 (Macintosh; Intel Mac OS X 10_15_7) AppleWebKit/537.36 (KHTML, like Gecko) draw.io/24.1.0 Chrome/120.0.6099.109 Electron/28.1.0 Safari/537.36" etag="ScPT7HuvQqiSrPvyKa6C" version="24.1.0" type="device">
  <diagram name="Лабараторная 2 Общая" id="L8g5H1mUCuBD9hgGe0UU">
    <mxGraphModel dx="2410" dy="1123" grid="1" gridSize="10" guides="1" tooltips="1" connect="1" arrows="1" fold="1" page="1" pageScale="1" pageWidth="827" pageHeight="1169" math="0" shadow="0">
      <root>
        <mxCell id="0" />
        <mxCell id="1" parent="0" />
        <mxCell id="MlDLe-bG7l8wHqYYhmd9-1" style="edgeStyle=orthogonalEdgeStyle;rounded=0;orthogonalLoop=1;jettySize=auto;html=1;exitX=1;exitY=0.5;exitDx=0;exitDy=0;entryX=0;entryY=0.5;entryDx=0;entryDy=0;" edge="1" parent="1" source="MlDLe-bG7l8wHqYYhmd9-4" target="MlDLe-bG7l8wHqYYhmd9-6">
          <mxGeometry relative="1" as="geometry" />
        </mxCell>
        <mxCell id="MlDLe-bG7l8wHqYYhmd9-2" style="edgeStyle=orthogonalEdgeStyle;rounded=0;orthogonalLoop=1;jettySize=auto;html=1;exitX=0.5;exitY=1;exitDx=0;exitDy=0;" edge="1" parent="1" source="MlDLe-bG7l8wHqYYhmd9-22" target="MlDLe-bG7l8wHqYYhmd9-6">
          <mxGeometry relative="1" as="geometry" />
        </mxCell>
        <mxCell id="MlDLe-bG7l8wHqYYhmd9-3" style="edgeStyle=orthogonalEdgeStyle;rounded=0;orthogonalLoop=1;jettySize=auto;html=1;exitX=0.5;exitY=1;exitDx=0;exitDy=0;entryX=0.5;entryY=0;entryDx=0;entryDy=0;" edge="1" parent="1" source="MlDLe-bG7l8wHqYYhmd9-23" target="MlDLe-bG7l8wHqYYhmd9-8">
          <mxGeometry relative="1" as="geometry" />
        </mxCell>
        <mxCell id="MlDLe-bG7l8wHqYYhmd9-4" value="Создание запроса из объектов класса" style="rounded=0;whiteSpace=wrap;html=1;" vertex="1" parent="1">
          <mxGeometry x="90" y="550" width="200" height="120" as="geometry" />
        </mxCell>
        <mxCell id="MlDLe-bG7l8wHqYYhmd9-5" style="edgeStyle=orthogonalEdgeStyle;rounded=0;orthogonalLoop=1;jettySize=auto;html=1;exitX=1;exitY=0.5;exitDx=0;exitDy=0;entryX=0;entryY=0.25;entryDx=0;entryDy=0;" edge="1" parent="1" source="MlDLe-bG7l8wHqYYhmd9-6" target="MlDLe-bG7l8wHqYYhmd9-8">
          <mxGeometry relative="1" as="geometry" />
        </mxCell>
        <mxCell id="MlDLe-bG7l8wHqYYhmd9-6" value="Валидация по структуре БД" style="rounded=0;whiteSpace=wrap;html=1;" vertex="1" parent="1">
          <mxGeometry x="360" y="680" width="200" height="120" as="geometry" />
        </mxCell>
        <mxCell id="MlDLe-bG7l8wHqYYhmd9-7" style="edgeStyle=orthogonalEdgeStyle;rounded=0;orthogonalLoop=1;jettySize=auto;html=1;exitX=1;exitY=0.5;exitDx=0;exitDy=0;entryX=0;entryY=0.75;entryDx=0;entryDy=0;" edge="1" parent="1" source="MlDLe-bG7l8wHqYYhmd9-27" target="MlDLe-bG7l8wHqYYhmd9-8">
          <mxGeometry relative="1" as="geometry">
            <mxPoint x="1040" y="1040" as="targetPoint" />
          </mxGeometry>
        </mxCell>
        <mxCell id="MlDLe-bG7l8wHqYYhmd9-8" value="Отправка запроса на базу данных" style="rounded=0;whiteSpace=wrap;html=1;" vertex="1" parent="1">
          <mxGeometry x="620" y="840" width="200" height="120" as="geometry" />
        </mxCell>
        <mxCell id="MlDLe-bG7l8wHqYYhmd9-9" value="" style="endArrow=classic;html=1;rounded=0;exitX=1;exitY=0.5;exitDx=0;exitDy=0;" edge="1" parent="1" source="MlDLe-bG7l8wHqYYhmd9-10">
          <mxGeometry width="50" height="50" relative="1" as="geometry">
            <mxPoint x="30" y="500" as="sourcePoint" />
            <mxPoint x="90" y="605" as="targetPoint" />
          </mxGeometry>
        </mxCell>
        <mxCell id="MlDLe-bG7l8wHqYYhmd9-10" value="Информация о структуре базы данных" style="text;html=1;align=center;verticalAlign=middle;whiteSpace=wrap;rounded=0;" vertex="1" parent="1">
          <mxGeometry x="-160" y="590" width="150" height="30" as="geometry" />
        </mxCell>
        <mxCell id="MlDLe-bG7l8wHqYYhmd9-11" value="Данные для создания запроса" style="text;html=1;align=center;verticalAlign=middle;whiteSpace=wrap;rounded=0;" vertex="1" parent="1">
          <mxGeometry x="-160" y="550" width="150" height="30" as="geometry" />
        </mxCell>
        <mxCell id="MlDLe-bG7l8wHqYYhmd9-12" style="edgeStyle=orthogonalEdgeStyle;rounded=0;orthogonalLoop=1;jettySize=auto;html=1;exitX=1;exitY=0.5;exitDx=0;exitDy=0;entryX=0;entryY=0.75;entryDx=0;entryDy=0;" edge="1" parent="1" source="MlDLe-bG7l8wHqYYhmd9-13">
          <mxGeometry relative="1" as="geometry">
            <mxPoint x="90" y="640" as="targetPoint" />
          </mxGeometry>
        </mxCell>
        <mxCell id="MlDLe-bG7l8wHqYYhmd9-13" value="Данные для подключения к базе данных" style="text;html=1;align=center;verticalAlign=middle;whiteSpace=wrap;rounded=0;" vertex="1" parent="1">
          <mxGeometry x="-160" y="625" width="160" height="30" as="geometry" />
        </mxCell>
        <mxCell id="MlDLe-bG7l8wHqYYhmd9-14" style="edgeStyle=orthogonalEdgeStyle;rounded=0;orthogonalLoop=1;jettySize=auto;html=1;exitX=1;exitY=0.5;exitDx=0;exitDy=0;entryX=-0.01;entryY=0.125;entryDx=0;entryDy=0;entryPerimeter=0;" edge="1" parent="1" source="MlDLe-bG7l8wHqYYhmd9-11">
          <mxGeometry relative="1" as="geometry">
            <mxPoint x="88" y="565" as="targetPoint" />
          </mxGeometry>
        </mxCell>
        <mxCell id="MlDLe-bG7l8wHqYYhmd9-15" style="edgeStyle=orthogonalEdgeStyle;rounded=0;orthogonalLoop=1;jettySize=auto;html=1;entryX=0;entryY=0.5;entryDx=0;entryDy=0;" edge="1" parent="1" target="MlDLe-bG7l8wHqYYhmd9-16">
          <mxGeometry relative="1" as="geometry">
            <mxPoint x="827" y="890" as="sourcePoint" />
          </mxGeometry>
        </mxCell>
        <mxCell id="MlDLe-bG7l8wHqYYhmd9-16" value="Ответ с базы данных" style="text;html=1;align=center;verticalAlign=middle;whiteSpace=wrap;rounded=0;" vertex="1" parent="1">
          <mxGeometry x="877" y="875" width="60" height="30" as="geometry" />
        </mxCell>
        <mxCell id="MlDLe-bG7l8wHqYYhmd9-17" value="Правила составления запросов" style="text;html=1;align=center;verticalAlign=middle;whiteSpace=wrap;rounded=0;" vertex="1" parent="1">
          <mxGeometry x="160" y="420" width="60" height="30" as="geometry" />
        </mxCell>
        <mxCell id="MlDLe-bG7l8wHqYYhmd9-18" style="edgeStyle=orthogonalEdgeStyle;rounded=0;orthogonalLoop=1;jettySize=auto;html=1;exitX=0.5;exitY=1;exitDx=0;exitDy=0;entryX=0.5;entryY=0;entryDx=0;entryDy=0;" edge="1" parent="1" source="MlDLe-bG7l8wHqYYhmd9-17">
          <mxGeometry relative="1" as="geometry">
            <mxPoint x="190" y="550" as="targetPoint" />
          </mxGeometry>
        </mxCell>
        <mxCell id="MlDLe-bG7l8wHqYYhmd9-19" style="edgeStyle=orthogonalEdgeStyle;rounded=0;orthogonalLoop=1;jettySize=auto;html=1;entryX=0.25;entryY=1;entryDx=0;entryDy=0;" edge="1" parent="1">
          <mxGeometry relative="1" as="geometry">
            <mxPoint x="190" y="670" as="targetPoint" />
            <mxPoint x="190" y="860" as="sourcePoint" />
          </mxGeometry>
        </mxCell>
        <mxCell id="MlDLe-bG7l8wHqYYhmd9-20" style="edgeStyle=orthogonalEdgeStyle;rounded=0;orthogonalLoop=1;jettySize=auto;html=1;exitX=0.5;exitY=0;exitDx=0;exitDy=0;entryX=0.25;entryY=1;entryDx=0;entryDy=0;" edge="1" parent="1" source="MlDLe-bG7l8wHqYYhmd9-21">
          <mxGeometry relative="1" as="geometry">
            <mxPoint x="460" y="800" as="targetPoint" />
            <Array as="points">
              <mxPoint x="461" y="860" />
              <mxPoint x="461" y="800" />
            </Array>
          </mxGeometry>
        </mxCell>
        <mxCell id="MlDLe-bG7l8wHqYYhmd9-21" value="Язык программирования" style="text;html=1;align=center;verticalAlign=middle;whiteSpace=wrap;rounded=0;" vertex="1" parent="1">
          <mxGeometry x="300" y="860" width="60" height="30" as="geometry" />
        </mxCell>
        <mxCell id="MlDLe-bG7l8wHqYYhmd9-22" value="Информация о структуре базы данных" style="text;html=1;align=center;verticalAlign=middle;whiteSpace=wrap;rounded=0;" vertex="1" parent="1">
          <mxGeometry x="385" y="550" width="150" height="30" as="geometry" />
        </mxCell>
        <mxCell id="MlDLe-bG7l8wHqYYhmd9-23" value="Данные для подключения к базе данных" style="text;html=1;align=center;verticalAlign=middle;whiteSpace=wrap;rounded=0;" vertex="1" parent="1">
          <mxGeometry x="647" y="610" width="160" height="30" as="geometry" />
        </mxCell>
        <mxCell id="MlDLe-bG7l8wHqYYhmd9-24" value="Запрос" style="text;html=1;align=center;verticalAlign=middle;whiteSpace=wrap;rounded=0;" vertex="1" parent="1">
          <mxGeometry x="290" y="580" width="60" height="30" as="geometry" />
        </mxCell>
        <mxCell id="MlDLe-bG7l8wHqYYhmd9-25" value="Корректный запрос" style="text;html=1;align=center;verticalAlign=middle;whiteSpace=wrap;rounded=0;" vertex="1" parent="1">
          <mxGeometry x="570" y="710" width="60" height="30" as="geometry" />
        </mxCell>
        <mxCell id="MlDLe-bG7l8wHqYYhmd9-26" value="Подключение к базе данных" style="text;html=1;align=center;verticalAlign=middle;whiteSpace=wrap;rounded=0;" vertex="1" parent="1">
          <mxGeometry x="270" y="970" width="140" height="30" as="geometry" />
        </mxCell>
        <mxCell id="MlDLe-bG7l8wHqYYhmd9-27" value="Валидация подключения к базе" style="rounded=0;whiteSpace=wrap;html=1;" vertex="1" parent="1">
          <mxGeometry x="70" y="940" width="200" height="120" as="geometry" />
        </mxCell>
        <mxCell id="MlDLe-bG7l8wHqYYhmd9-28" value="" style="endArrow=none;html=1;rounded=0;entryX=0.5;entryY=0;entryDx=0;entryDy=0;" edge="1" parent="1" target="MlDLe-bG7l8wHqYYhmd9-21">
          <mxGeometry width="50" height="50" relative="1" as="geometry">
            <mxPoint x="190" y="860" as="sourcePoint" />
            <mxPoint x="650" y="650" as="targetPoint" />
          </mxGeometry>
        </mxCell>
      </root>
    </mxGraphModel>
  </diagram>
</mxfile>
